<?xml version="1.0" encoding="UTF-8"?>
<svg width="540" height="360" viewBox="0 0 540 360" xmlns="http://www.w3.org/2000/svg">
  <defs>
    <!-- Background gradient -->
    <linearGradient id="bg" x1="0%" y1="0%" x2="0%" y2="100%">
      <stop offset="0%" style="stop-color:#fafafa;stop-opacity:1" />
      <stop offset="100%" style="stop-color:#f0f0f0;stop-opacity:1" />
    </linearGradient>
    
    <!-- Arrow gradient -->
    <linearGradient id="arrow" x1="0%" y1="0%" x2="100%" y2="0%">
      <stop offset="0%" style="stop-color:#1a1a1a;stop-opacity:1" />
      <stop offset="100%" style="stop-color:#666666;stop-opacity:1" />
    </linearGradient>
  </defs>

  <!-- Background -->
  <rect width="540" height="360" fill="url(#bg)" />
  
  <!-- Subtle texture dots -->
  <circle cx="40" cy="40" r="0.5" fill="#e8e8e8" opacity="0.3" />
  <circle cx="100" cy="60" r="0.5" fill="#e8e8e8" opacity="0.3" />
  <circle cx="160" cy="40" r="0.5" fill="#e8e8e8" opacity="0.3" />
  <circle cx="220" cy="60" r="0.5" fill="#e8e8e8" opacity="0.3" />
  <circle cx="280" cy="40" r="0.5" fill="#e8e8e8" opacity="0.3" />
  <circle cx="340" cy="60" r="0.5" fill="#e8e8e8" opacity="0.3" />
  <circle cx="400" cy="40" r="0.5" fill="#e8e8e8" opacity="0.3" />
  <circle cx="460" cy="60" r="0.5" fill="#e8e8e8" opacity="0.3" />
  
  <circle cx="60" cy="120" r="0.5" fill="#e8e8e8" opacity="0.3" />
  <circle cx="120" cy="140" r="0.5" fill="#e8e8e8" opacity="0.3" />
  <circle cx="180" cy="120" r="0.5" fill="#e8e8e8" opacity="0.3" />
  <circle cx="240" cy="140" r="0.5" fill="#e8e8e8" opacity="0.3" />
  <circle cx="300" cy="120" r="0.5" fill="#e8e8e8" opacity="0.3" />
  <circle cx="360" cy="140" r="0.5" fill="#e8e8e8" opacity="0.3" />
  <circle cx="420" cy="120" r="0.5" fill="#e8e8e8" opacity="0.3" />
  <circle cx="480" cy="140" r="0.5" fill="#e8e8e8" opacity="0.3" />

  <!-- Border -->
  <rect x="0.5" y="0.5" width="539" height="359" fill="none" stroke="#e1e1e1" stroke-width="1" />

  <!-- App Title -->
  <text x="270" y="70" text-anchor="middle" fill="#1a1a1a" font-family="Crimson Text, Georgia, Times, serif" font-size="32" font-weight="600">
    Temporal Focus
  </text>

  <!-- Subtitle -->
  <text x="270" y="95" text-anchor="middle" fill="#666666" font-family="Inter, -apple-system, BlinkMacSystemFont, Arial, sans-serif" font-size="14" font-weight="400">
    Focus through temporal scarcity
  </text>

  <!-- Install instruction -->
  <text x="270" y="280" text-anchor="middle" fill="#2a2a2a" font-family="Inter, -apple-system, BlinkMacSystemFont, Arial, sans-serif" font-size="15" font-weight="500">
    Drag Temporal Focus to the Applications folder
  </text>

  <!-- Looping arrow path -->
  <path d="M 180 120 C 220 120, 250 160, 270 200 S 350 240, 380 240" 
        fill="none" stroke="url(#arrow)" stroke-width="2" 
        stroke-dasharray="8 4" opacity="0.7" />
  
  <!-- Arrow head -->
  <polygon points="375,236 385,240 375,244" fill="#1a1a1a" opacity="0.7" />

  <!-- Bottom text -->
  <text x="270" y="330" text-anchor="middle" fill="#888888" font-family="Inter, -apple-system, BlinkMacSystemFont, Arial, sans-serif" font-size="11" font-weight="400">
    v1.1.0 • Built with focus and intention
  </text>
</svg>